<svg xmlns="http://www.w3.org/2000/svg" viewBox="0 0 400 500" width="400" height="500" role="img" aria-label="Havan Lakdi — detail">
<defs>
<pattern id="bp" width="64" height="64" patternUnits="userSpaceOnUse">
  <rect width="64" height="64" fill="none"/>
  <path d="M32 8 L40 24 L32 32 L24 24 Z" fill="#452F1F" opacity="0.09"/>
  <circle cx="8" cy="48" r="3.5" fill="#452F1F" opacity="0.09"/>
  <circle cx="56" cy="48" r="3.5" fill="#452F1F" opacity="0.09"/>
  <path d="M0 40 Q16 32 32 40 T64 40" stroke="#452F1F" stroke-width="1.2" fill="none" opacity="0.09"/>
</pattern>
<filter id="gr"><feTurbulence type="fractalNoise" baseFrequency="0.9" numOctaves="3"/>
<feColorMatrix type="saturate" values="0"/><feComponentTransfer><feFuncA type="linear" slope="0.07"/></feComponentTransfer>
<feComposite operator="in" in2="SourceGraphic"/></filter></defs>
<rect width="400" height="500" fill="#E4D7C0"/>
<rect width="400" height="500" fill="url(#bp)"/>
<rect width="400" height="500" filter="url(#gr)" fill="#452F1F"/>
<rect x="16" y="16" width="368" height="468" rx="10" fill="none" stroke="#452F1F" stroke-opacity="0.14"/>

    <g transform="translate(200 256)">
      <ellipse cx="0" cy="124" rx="130" ry="18" fill="#452F1F" opacity="0.10"/>
      <g transform="translate(-58 -50) rotate(-14)">
        <rect x="-108" y="-30" width="216" height="60" rx="30" fill="#78593C" opacity="0.22"/>
        <rect x="-108" y="-30" width="216" height="60" rx="30" fill="none" stroke="#452F1F" stroke-width="3"/>
        <ellipse cx="-78" cy="0" rx="14" ry="26" fill="#F7F1E6" stroke="#452F1F" stroke-width="2.4"/>
        <path d="M-40 -8 L60 -8 M-40 10 L44 10" stroke="#452F1F" stroke-width="1.6" opacity="0.4"/></g><g transform="translate(10 -6) rotate(6)">
        <rect x="-108" y="-30" width="216" height="60" rx="30" fill="#78593C" opacity="0.22"/>
        <rect x="-108" y="-30" width="216" height="60" rx="30" fill="none" stroke="#452F1F" stroke-width="3"/>
        <ellipse cx="-78" cy="0" rx="14" ry="26" fill="#F7F1E6" stroke="#452F1F" stroke-width="2.4"/>
        <path d="M-40 -8 L60 -8 M-40 10 L44 10" stroke="#452F1F" stroke-width="1.6" opacity="0.4"/></g><g transform="translate(-30 62) rotate(0)">
        <rect x="-108" y="-30" width="216" height="60" rx="30" fill="#78593C" opacity="0.22"/>
        <rect x="-108" y="-30" width="216" height="60" rx="30" fill="none" stroke="#452F1F" stroke-width="3"/>
        <ellipse cx="-78" cy="0" rx="14" ry="26" fill="#F7F1E6" stroke="#452F1F" stroke-width="2.4"/>
        <path d="M-40 -8 L60 -8 M-40 10 L44 10" stroke="#452F1F" stroke-width="1.6" opacity="0.4"/></g>
    </g>
<text x="200" y="452" text-anchor="middle" font-family="Georgia, serif" font-size="17" fill="#452F1F" opacity="0.62">Havan Lakdi — detail</text>
</svg>
